<svg aria-hidden="true" style="width:0;height:0;position:absolute;overflow:hidden" xmlns="http://www.w3.org/2000/svg"><defs><symbol id="icon-heart" viewBox="0 0 34 32"><path fill="#ff6b08" style="fill:var(--color1,#ff6b08)" d="m17.231 31.754-2.462-2.462C5.907 21.415 0 16 0 9.6 0 3.938 4.185 0 9.6 0c2.708 0 5.662 1.477 7.631 3.692C19.2 1.23 22.154 0 25.108 0c5.169 0 9.354 4.185 9.354 9.6 0 6.4-5.908 11.815-14.769 19.692l-2.462 2.462z"/></symbol><symbol id="icon-search" viewBox="0 0 32 32"><path fill="none" style="stroke:currentColor" stroke-linejoin="round" stroke-linecap="round" stroke-width="2.667" d="M14.667 25.333c5.891 0 10.667-4.776 10.667-10.667S20.558 3.999 14.667 3.999v0C8.776 3.999 4 8.775 4 14.666s4.776 10.667 10.667 10.667v0zM28 28l-5.8-5.8"/></symbol><symbol id="icon-film" viewBox="0 0 32 32"><path fill="none" stroke="#fff" style="stroke:var(--color2,#fff)" stroke-linejoin="round" stroke-linecap="round" stroke-width="2.667" d="M26.4 2.667H5.6C4 2.667 2.667 4 2.667 5.6v20.8C2.667 28 4 29.333 5.6 29.333h20.8c1.6 0 2.933-1.333 2.933-2.933V5.6C29.333 4 28 2.667 26.4 2.667zm-17.067 0v26.667M22.667 2.667v26.667M2.667 16h26.667M2.667 9.333h6.667M2.667 22.667h6.667m13.333 0h6.667M22.667 9.333h6.667"/></symbol><symbol id="close" viewBox="0 0 32 32"><path d="M32 3.223 28.777 0 16 12.777 3.223 0 0 3.223 12.777 16 0 28.777 3.223 32 16 19.223 28.777 32 32 28.777 19.223 16 32 3.223z"/></symbol><symbol id="github" viewBox="0 0 32 32"><path d="M16 .395c-8.836 0-16 7.163-16 16 0 7.069 4.585 13.067 10.942 15.182.8.148 1.094-.347 1.094-.77 0-.381-.015-1.642-.022-2.979-4.452.968-5.391-1.888-5.391-1.888-.728-1.849-1.776-2.341-1.776-2.341-1.452-.993.11-.973.11-.973 1.606.113 2.452 1.649 2.452 1.649 1.427 2.446 3.743 1.739 4.656 1.33.143-1.034.558-1.74 1.016-2.14-3.554-.404-7.29-1.777-7.29-7.907 0-1.747.625-3.174 1.649-4.295-.166-.403-.714-2.03.155-4.234 0 0 1.344-.43 4.401 1.64a15.353 15.353 0 0 1 4.005-.539c1.359.006 2.729.184 4.008.539 3.054-2.07 4.395-1.64 4.395-1.64.871 2.204.323 3.831.157 4.234 1.026 1.12 1.647 2.548 1.647 4.295 0 6.145-3.743 7.498-7.306 7.895.574.497 1.085 1.47 1.085 2.963 0 2.141-.019 3.864-.019 4.391 0 .426.288.925 1.099.768C27.421 29.457 32 23.462 32 16.395c0-8.837-7.164-16-16-16z"/></symbol><symbol id="icon-arrow-left" viewBox="0 0 32 32"><path d="m12.586 27.414-10-10a2 2 0 0 1 0-2.828l10-10a2 2 0 1 1 2.828 2.828L8.828 14H28a2 2 0 1 1 0 4H8.828l6.586 6.586c.39.39.586.902.586 1.414s-.195 1.024-.586 1.414a2 2 0 0 1-2.828 0z"/></symbol><symbol id="icon-arrow-right" viewBox="0 0 32 32"><path d="m19.414 27.414 10-10a2 2 0 0 0 0-2.828l-10-10a2 2 0 1 0-2.828 2.828L23.172 14H4a2 2 0 1 0 0 4h19.172l-6.586 6.586c-.39.39-.586.902-.586 1.414s.195 1.024.586 1.414a2 2 0 0 0 2.828 0z"/></symbol><symbol id="icon-sun" viewBox="0 0 32 32"><path fill="#fff" stroke="#fff" style="stroke:var(--color2,#fff)" d="M27.333 4.706c.51.51.509 1.337 0 1.846l-1.924 1.925c-.51.51-1.337.51-1.846 0l-.039-.039a1.307 1.307 0 0 1-.001-1.847l1.925-1.925c.51-.51 1.337-.51 1.846 0l.039.039zM16.028 0c.721 0 1.306.585 1.306 1.306v2.722c0 .721-.585 1.306-1.306 1.306h-.055a1.306 1.306 0 0 1-1.306-1.306V1.306c0-.721.585-1.306 1.306-1.306h.055zM8.457 6.572a1.332 1.332 0 1 1-1.885 1.886L4.687 6.573a1.333 1.333 0 1 1 1.886-1.886l1.885 1.885zM4 14.667a1.333 1.333 0 0 1 0 2.666H1.333a1.333 1.333 0 0 1 0-2.666H4zm4.477 8.896c.51.51.51 1.336 0 1.846l-1.926 1.925c-.509.51-1.336.51-1.846 0l-.04-.039a1.305 1.305 0 0 1 0-1.846l1.925-1.925a1.307 1.307 0 0 1 1.846 0l.04.04zm7.551 3.104c.721 0 1.305.585 1.305 1.305v2.723c0 .721-.584 1.305-1.305 1.305h-.056a1.305 1.305 0 0 1-1.305-1.305v-2.723c0-.721.584-1.305 1.305-1.305h.056zm11.305-1.219c.509.51.51 1.337 0 1.846l-.039.039c-.509.51-1.337.51-1.846 0l-1.925-1.924a1.307 1.307 0 0 1 .001-1.847l.038-.038c.51-.51 1.337-.51 1.847-.001l1.924 1.925zm3.361-10.781c.721 0 1.306.585 1.306 1.306v.055c0 .721-.585 1.306-1.306 1.306h-2.722a1.306 1.306 0 0 1-1.306-1.306v-.055c0-.721.585-1.306 1.306-1.306h2.722zM8 16a8 8 0 1 0 16 0 8 8 0 0 0-16 0zm13.333 0a5.333 5.333 0 1 1-10.667 0 5.333 5.333 0 0 1 10.667 0z"/></symbol><symbol id="icon-moon" viewBox="0 0 32 32"><path fill="none" stroke="#fff" style="stroke:var(--color2,#fff)" stroke-linejoin="round" stroke-linecap="round" stroke-width="2.667" d="M28 17.053c-.584 6.135-5.71 10.896-11.949 10.896-6.627 0-12-5.373-12-12 0-6.239 4.761-11.365 10.847-11.945L14.946 4a9.262 9.262 0 0 0-1.828 5.548 9.333 9.333 0 0 0 9.333 9.333 9.29 9.29 0 0 0 5.572-1.845l-.025.018z"/></symbol><symbol id="trident" viewBox="0 0 82.959 138.231"><path d="M41.48 0c-3.215 3.655-5.185 8.451-5.185 13.688.207 11.537 1.607 23.047 1.737 34.584.259 10.733-2.956 20.817-6.87 30.643-1.323 2.722-2.723 5.392-4.148 8.063l-4.148-.856c-3.76-.752-6.196-4.381-5.445-8.114a6.968 6.968 0 0 1 6.767-5.574l1.503.155-3.37-28.154c-1.115-12.548-7.57-23.566-17.11-30.747A49.472 49.472 0 0 0 0 10.344v100.121h23.125c1.737 9.385 6.896 17.551 14.155 23.177 1.737 1.166 3.163 2.748 4.2 4.588 1.037-1.84 2.463-3.422 4.2-4.588 7.258-5.626 12.417-13.792 14.154-23.177H82.96V10.345a49.474 49.474 0 0 0-5.21 3.343c-9.54 7.182-15.996 18.2-17.11 30.747L57.267 72.59l1.504-.155a6.968 6.968 0 0 1 6.766 5.574c.752 3.733-1.685 7.362-5.444 8.114l-4.148.856c-1.426-2.67-2.826-5.34-4.148-8.063-3.915-9.825-7.13-19.91-6.87-30.643.13-11.537 1.53-23.047 1.737-34.584 0-5.237-1.97-10.033-5.185-13.688zM6.922 24.784a35.807 35.807 0 0 1 8.374 18.977l2.774 23.254c-3.526 1.763-6.222 4.978-7.233 8.867H6.922V24.784zm69.115 0v51.098h-3.914c-1.011-3.889-3.708-7.104-7.233-8.866l2.774-23.255a35.807 35.807 0 0 1 8.373-18.977zM41.48 71.501a79.077 79.077 0 0 0 7.57 17.188c-3.008.933-5.652 2.722-7.57 5.107-1.919-2.411-4.563-4.174-7.57-5.107A79.077 79.077 0 0 0 41.48 71.5zM6.922 82.803h3.915c1.244 4.77 4.951 8.555 9.695 9.851l3.319.778a38.226 38.226 0 0 0-1.374 10.11H6.922v-20.74zm65.2 0h3.915v20.74H60.482c0-3.5-.492-6.896-1.374-10.111l3.319-.778c4.718-1.296 8.451-5.081 9.696-9.851zm-41.505 12.21c4.174.597 7.415 4.174 7.415 8.53h-8.633c0-2.956.44-5.808 1.218-8.53zm21.725 0a30.965 30.965 0 0 1 1.218 8.53h-8.632c0-4.356 3.24-7.933 7.414-8.53zm-22.166 15.451h7.855v14.544c-3.81-3.992-6.584-8.996-7.855-14.544zm14.752 0h7.855c-1.27 5.548-4.045 10.552-7.856 14.544v-14.544z"/></symbol></defs></svg>