<svg aria-hidden="true" style="position: absolute; width: 0; height: 0; overflow: hidden;" version="1.1" xmlns="http://www.w3.org/2000/svg" xmlns:xlink="http://www.w3.org/1999/xlink">
<defs>
<symbol id="icon-heart" viewBox="0 0 34 32">
<path fill="#ff6b08" style="fill: var(--color1, #ff6b08)" d="M17.231 31.754l-2.462-2.462c-8.862-7.877-14.769-13.292-14.769-19.692 0-5.662 4.185-9.6 9.6-9.6 2.708 0 5.662 1.477 7.631 3.692 1.969-2.462 4.923-3.692 7.877-3.692 5.169 0 9.354 4.185 9.354 9.6 0 6.4-5.908 11.815-14.769 19.692l-2.462 2.462z"></path>
</symbol>
<symbol id="icon-search" viewBox="0 0 32 32">
<path fill="none" stroke="#fff" style="stroke: var(--color2, #fff)" stroke-linejoin="round" stroke-linecap="round" stroke-miterlimit="4" stroke-width="2.6667" d="M14.667 25.333c5.891 0 10.667-4.776 10.667-10.667s-4.776-10.667-10.667-10.667v0c-5.891 0-10.667 4.776-10.667 10.667s4.776 10.667 10.667 10.667v0zM28 28l-5.867-5.867"></path>
</symbol>
<symbol id="icon-film" viewBox="0 0 32 32">
<path fill="none" stroke="#fff" style="stroke: var(--color2, #fff)" stroke-linejoin="round" stroke-linecap="round" stroke-miterlimit="4" stroke-width="2.6667" d="M26.4 2.667h-20.8c-1.6 0-2.933 1.333-2.933 2.933v20.8c0 1.6 1.333 2.933 2.933 2.933h20.8c1.6 0 2.933-1.333 2.933-2.933v-20.8c0-1.6-1.333-2.933-2.933-2.933zM9.333 2.667v26.667M22.667 2.667v26.667M2.667 16h26.667M2.667 9.333h6.667M2.667 22.667h6.667M22.667 22.667h6.667M22.667 9.333h6.667"></path>
</symbol>
</defs>
</svg>
