<svg aria-hidden="true" style="position: absolute; width: 0; height: 0; overflow: hidden;" version="1.1" xmlns="http://www.w3.org/2000/svg" xmlns:xlink="http://www.w3.org/1999/xlink">
<defs>
<symbol id="icon-heart" viewBox="0 0 34 32">
<path fill="#ff6b08" style="fill: var(--color1, #ff6b08)" d="M17.231 31.754l-2.462-2.462c-8.862-7.877-14.769-13.292-14.769-19.692 0-5.662 4.185-9.6 9.6-9.6 2.708 0 5.662 1.477 7.631 3.692 1.969-2.462 4.923-3.692 7.877-3.692 5.169 0 9.354 4.185 9.354 9.6 0 6.4-5.908 11.815-14.769 19.692l-2.462 2.462z"></path>
</symbol>
<symbol id="icon-search" viewBox="0 0 32 32">
<path fill="none" style="stroke: currentColor" stroke-linejoin="round" stroke-linecap="round" stroke-miterlimit="4" stroke-width="2.6667" d="M14.667 25.333c5.891 0 10.667-4.776 10.667-10.667s-4.776-10.667-10.667-10.667v0c-5.891 0-10.667 4.776-10.667 10.667s4.776 10.667 10.667 10.667v0zM28 28l-5.8-5.8"></path>
</symbol>
<symbol id="icon-film" viewBox="0 0 32 32">
<path fill="none" stroke="#fff" style="stroke: var(--color2, #fff)" stroke-linejoin="round" stroke-linecap="round" stroke-miterlimit="4" stroke-width="2.6667" d="M26.4 2.667h-20.8c-1.6 0-2.933 1.333-2.933 2.933v20.8c0 1.6 1.333 2.933 2.933 2.933h20.8c1.6 0 2.933-1.333 2.933-2.933v-20.8c0-1.6-1.333-2.933-2.933-2.933zM9.333 2.667v26.667M22.667 2.667v26.667M2.667 16h26.667M2.667 9.333h6.667M2.667 22.667h6.667M22.667 22.667h6.667M22.667 9.333h6.667"></path>
</symbol>
<symbol id="close" viewBox="0 0 32 32">
<path d="M32 3.223 28.777 0 16 12.777 3.223 0 0 3.223 12.777 16 0 28.777 3.223 32 16 19.223 28.777 32 32 28.777 19.223 16 32 3.223z"/></symbol>
<symbol id="github" viewBox="0 0 32 32"><path d="M16 .395c-8.836 0-16 7.163-16 16 0 7.069 4.585 13.067 10.942 15.182.8.148 1.094-.347 1.094-.77 0-.381-.015-1.642-.022-2.979-4.452.968-5.391-1.888-5.391-1.888-.728-1.849-1.776-2.341-1.776-2.341-1.452-.993.11-.973.11-.973 1.606.113 2.452 1.649 2.452 1.649 1.427 2.446 3.743 1.739 4.656 1.33.143-1.034.558-1.74 1.016-2.14-3.554-.404-7.29-1.777-7.29-7.907 0-1.747.625-3.174 1.649-4.295-.166-.403-.714-2.03.155-4.234 0 0 1.344-.43 4.401 1.64a15.353 15.353 0 014.005-.539c1.359.006 2.729.184 4.008.539 3.054-2.07 4.395-1.64 4.395-1.64.871 2.204.323 3.831.157 4.234 1.026 1.12 1.647 2.548 1.647 4.295 0 6.145-3.743 7.498-7.306 7.895.574.497 1.085 1.47 1.085 2.963 0 2.141-.019 3.864-.019 4.391 0 .426.288.925 1.099.768C27.421 29.457 32 23.462 32 16.395c0-8.837-7.164-16-16-16z"/></symbol>
<symbol id="icon-arrow-left" viewBox="0 0 32 32">
<path d="M12.586 27.414l-10-10c-0.781-0.781-0.781-2.047 0-2.828l10-10c0.781-0.781 2.047-0.781 2.828 0s0.781 2.047 0 2.828l-6.586 6.586h19.172c1.105 0 2 0.895 2 2s-0.895 2-2 2h-19.172l6.586 6.586c0.39 0.39 0.586 0.902 0.586 1.414s-0.195 1.024-0.586 1.414c-0.781 0.781-2.047 0.781-2.828 0z"></path>
</symbol>
<symbol id="icon-arrow-right" viewBox="0 0 32 32">
<path d="M19.414 27.414l10-10c0.781-0.781 0.781-2.047 0-2.828l-10-10c-0.781-0.781-2.047-0.781-2.828 0s-0.781 2.047 0 2.828l6.586 6.586h-19.172c-1.105 0-2 0.895-2 2s0.895 2 2 2h19.172l-6.586 6.586c-0.39 0.39-0.586 0.902-0.586 1.414s0.195 1.024 0.586 1.414c0.781 0.781 2.047 0.781 2.828 0z"></path>
</symbol>
<symbol id="icon-sun" viewBox="0 0 32 32"><path fill="#fff" stroke="#fff" style="stroke: var(--color2, #fff)" d="M27.333 4.706c.51.51.509 1.337 0 1.846l-1.924 1.925c-.51.51-1.337.51-1.846 0l-.039-.039a1.307 1.307 0 0 1-.001-1.847l1.925-1.925c.51-.51 1.337-.51 1.846 0l.039.039zM16.028 0c.721 0 1.306.585 1.306 1.306v2.722c0 .721-.585 1.306-1.306 1.306h-.055a1.306 1.306 0 0 1-1.306-1.306V1.306c0-.721.585-1.306 1.306-1.306h.055zM8.457 6.572a1.332 1.332 0 1 1-1.885 1.886L4.687 6.573a1.333 1.333 0 1 1 1.886-1.886l1.885 1.885zM4 14.667a1.333 1.333 0 0 1 0 2.666H1.333a1.333 1.333 0 0 1 0-2.666H4zM8.477 23.563c.51.51.51 1.336 0 1.846l-1.926 1.925c-.509.51-1.336.51-1.846 0l-.04-.039a1.305 1.305 0 0 1 0-1.846l1.925-1.925a1.307 1.307 0 0 1 1.846 0l.04.04zM16.028 26.667c.721 0 1.305.585 1.305 1.305v2.723c0 .721-.584 1.305-1.305 1.305h-.056a1.305 1.305 0 0 1-1.305-1.305v-2.723c0-.721.584-1.305 1.305-1.305h.056zM27.333 25.448c.509.51.51 1.337 0 1.846l-.039.039c-.509.51-1.337.51-1.846 0l-1.925-1.924a1.307 1.307 0 0 1 .001-1.847l.038-.038c.51-.51 1.337-.51 1.847-.001l1.924 1.925zM30.694 14.667c.721 0 1.306.585 1.306 1.306v.055c0 .721-.585 1.306-1.306 1.306h-2.722a1.306 1.306 0 0 1-1.306-1.306v-.055c0-.721.585-1.306 1.306-1.306h2.722zM8 16a8 8 0 1 0 16 0 8 8 0 0 0-16 0zm13.333 0a5.333 5.333 0 1 1-10.667 0 5.333 5.333 0 0 1 10.667 0z"/></symbol>
<symbol id="icon-moon" viewBox="0 0 32 32"><path fill="none" stroke="#fff" style="stroke: var(--color2, #fff)" stroke-linejoin="round" stroke-linecap="round" stroke-width="2.667" d="M28 17.053c-.584 6.135-5.71 10.896-11.949 10.896-6.627 0-12-5.373-12-12 0-6.239 4.761-11.365 10.847-11.945L14.946 4a9.262 9.262 0 0 0-1.828 5.548 9.333 9.333 0 0 0 9.333 9.333 9.29 9.29 0 0 0 5.572-1.845l-.025.018z"/></symbol>
</defs>
</svg>

